%FSLAX46Y46*%
G04 Gerber Fmt 4.6, Leading zero omitted, Abs format (unit mm)*
G04 Created by KiCad (PCBNEW (2014-09-18 BZR 5141)-product) date So 20. září 2014, 02:23:35 CEST*
%MOMM*%
G01*
G04 APERTURE LIST*
%ADD10C,0.100000*%
%ADD11C,0.300000*%
G04 APERTURE END LIST*
D10*
D11*
X204923203Y-100208243D02*
X204852099Y-100136490D01*
X204781320Y-99993310D01*
X204782943Y-99636171D01*
X204855021Y-99493640D01*
X204926774Y-99422537D01*
X205069954Y-99351759D01*
X205212810Y-99352408D01*
X205426769Y-99424809D01*
X206280006Y-100285839D01*
X206284227Y-99357278D01*
X204786515Y-98850465D02*
X204791060Y-97850475D01*
X206288123Y-98500144D01*
X206222539Y-97214120D02*
X206293967Y-97214444D01*
X206436499Y-97286521D01*
X206507601Y-97358274D01*
X206297213Y-96500166D02*
X206298512Y-96214454D01*
X206227734Y-96071273D01*
X206156631Y-95999521D01*
X205942997Y-95855691D01*
X205657610Y-95782965D01*
X205086188Y-95780368D01*
X204943008Y-95851145D01*
X204871255Y-95922249D01*
X204799177Y-96064780D01*
X204797878Y-96350491D01*
X204868657Y-96493672D01*
X204939761Y-96565424D01*
X205082292Y-96637502D01*
X205439431Y-96639125D01*
X205582611Y-96568346D01*
X205654363Y-96497244D01*
X205726441Y-96354712D01*
X205727739Y-96069001D01*
X205656960Y-95925820D01*
X205585858Y-95854067D01*
X205443327Y-95781991D01*
X205306315Y-94495641D02*
X206306304Y-94500186D01*
X204733269Y-94850183D02*
X205803063Y-95212192D01*
X205807283Y-94283630D01*
X204811190Y-93421951D02*
X204811839Y-93279096D01*
X204883917Y-93136565D01*
X204955670Y-93065461D01*
X205098850Y-92994682D01*
X205384886Y-92924554D01*
X205742025Y-92926177D01*
X206027411Y-92998903D01*
X206169942Y-93070981D01*
X206241046Y-93142734D01*
X206311824Y-93285914D01*
X206311174Y-93428769D01*
X206239098Y-93571300D01*
X206167345Y-93642404D01*
X206024165Y-93713182D01*
X205738129Y-93783311D01*
X205380990Y-93781688D01*
X205095603Y-93708961D01*
X204953072Y-93636884D01*
X204881969Y-93565131D01*
X204811190Y-93421951D01*
X206321564Y-91143079D02*
X205321574Y-91138533D01*
X205464431Y-91139183D02*
X205393327Y-91067431D01*
X205322548Y-90924250D01*
X205323522Y-90709967D01*
X205395600Y-90567436D01*
X205538780Y-90496657D01*
X206324486Y-90500229D01*
X205538780Y-90496657D02*
X205396249Y-90424580D01*
X205325470Y-90281399D01*
X205326444Y-90067117D01*
X205398522Y-89924585D01*
X205541702Y-89853807D01*
X206327408Y-89857378D01*
X206330655Y-89143100D02*
X205330665Y-89138554D01*
X205473522Y-89139203D02*
X205402418Y-89067452D01*
X205331639Y-88924270D01*
X205332613Y-88709988D01*
X205404691Y-88567457D01*
X205547871Y-88496678D01*
X206333577Y-88500249D01*
X205547871Y-88496678D02*
X205405340Y-88424600D01*
X205334561Y-88281420D01*
X205335535Y-88067137D01*
X205407613Y-87924605D01*
X205550793Y-87853827D01*
X206336499Y-87857399D01*
X204343527Y-80020971D02*
X204216527Y-107960971D01*
X201930000Y-80010000D02*
X207043499Y-80033244D01*
X201803000Y-107950000D02*
X206916499Y-107973244D01*
X204216527Y-107960971D02*
X203635233Y-106831813D01*
X204216527Y-107960971D02*
X204808062Y-106837144D01*
X204343527Y-80020971D02*
X203751992Y-81144798D01*
X204343527Y-80020971D02*
X204924821Y-81150129D01*
X181127321Y-76240516D02*
X181199060Y-76169398D01*
X181342226Y-76098591D01*
X181699366Y-76100144D01*
X181841911Y-76172193D01*
X181913029Y-76243932D01*
X181983835Y-76387098D01*
X181983214Y-76529954D01*
X181910855Y-76743927D01*
X181049993Y-77597335D01*
X181978555Y-77601372D01*
X182692834Y-77604477D02*
X182978546Y-77605720D01*
X183121712Y-77534913D01*
X183193450Y-77463796D01*
X183337238Y-77250134D01*
X183409908Y-76964732D01*
X183412392Y-76393309D01*
X183341586Y-76250143D01*
X183270468Y-76178404D01*
X183127923Y-76106355D01*
X182842212Y-76105113D01*
X182699045Y-76175920D01*
X182627307Y-76247038D01*
X182555257Y-76389583D01*
X182553705Y-76746722D01*
X182624512Y-76889889D01*
X182695629Y-76961627D01*
X182838175Y-77033676D01*
X183123886Y-77034918D01*
X183267052Y-76964111D01*
X183338791Y-76892994D01*
X183410840Y-76750449D01*
X184121702Y-77539261D02*
X184121391Y-77610689D01*
X184049343Y-77753235D01*
X183977604Y-77824351D01*
X184698715Y-76256044D02*
X184770454Y-76184926D01*
X184913620Y-76114119D01*
X185270760Y-76115672D01*
X185413305Y-76187721D01*
X185484423Y-76259460D01*
X185555229Y-76402626D01*
X185554608Y-76545482D01*
X185482249Y-76759455D01*
X184621387Y-77612862D01*
X185549950Y-77616900D01*
X186978507Y-77623111D02*
X186121372Y-77619384D01*
X186549940Y-77621247D02*
X186556462Y-76121262D01*
X186412675Y-76334925D01*
X186269197Y-76477159D01*
X186126031Y-76547966D01*
X187913591Y-76127162D02*
X188056447Y-76127783D01*
X188198992Y-76199833D01*
X188270110Y-76271572D01*
X188340917Y-76414738D01*
X188411102Y-76700760D01*
X188409549Y-77057899D01*
X188336879Y-77343300D01*
X188264830Y-77485845D01*
X188193091Y-77556963D01*
X188049925Y-77627769D01*
X187907069Y-77627148D01*
X187764524Y-77555100D01*
X187693406Y-77483361D01*
X187622600Y-77340195D01*
X187552414Y-77054173D01*
X187553967Y-76697033D01*
X187626637Y-76411632D01*
X187698686Y-76269087D01*
X187770425Y-76197969D01*
X187913591Y-76127162D01*
X190192762Y-77637086D02*
X190197109Y-76637095D01*
X190196488Y-76779952D02*
X190268226Y-76708834D01*
X190411393Y-76638027D01*
X190625676Y-76638959D01*
X190768222Y-76711008D01*
X190839029Y-76854174D01*
X190835613Y-77639881D01*
X190839029Y-76854174D02*
X190911078Y-76711629D01*
X191054244Y-76640822D01*
X191268527Y-76641754D01*
X191411073Y-76713803D01*
X191481880Y-76856969D01*
X191478464Y-77642676D01*
X192192743Y-77645781D02*
X192197091Y-76645791D01*
X192196469Y-76788647D02*
X192268207Y-76717530D01*
X192411375Y-76646723D01*
X192625658Y-76647654D01*
X192768203Y-76719704D01*
X192839010Y-76862870D01*
X192835594Y-77648576D01*
X192839010Y-76862870D02*
X192911059Y-76720325D01*
X193054225Y-76649518D01*
X193268508Y-76650449D01*
X193411055Y-76722499D01*
X193481861Y-76865665D01*
X193478445Y-77651371D01*
X172727728Y-78232586D02*
X201937728Y-78359586D01*
X172720000Y-80010000D02*
X172739467Y-75532612D01*
X201930000Y-80137000D02*
X201949467Y-75659612D01*
X201937728Y-78359586D02*
X200808685Y-78941103D01*
X201937728Y-78359586D02*
X200813785Y-77768273D01*
X172727728Y-78232586D02*
X173851671Y-78823899D01*
X172727728Y-78232586D02*
X173856771Y-77651069D01*
M02*
