%FSLAX46Y46*%
G04 Gerber Fmt 4.6, Leading zero omitted, Abs format (unit mm)*
G04 Created by KiCad (PCBNEW (2014-09-18 BZR 5141)-product) date Pá 19. září 2014, 20:54:54 CEST*
%MOMM*%
G01*
G04 APERTURE LIST*
%ADD10C,0.100000*%
%ADD11C,0.150000*%
%ADD12C,0.127000*%
%ADD13C,0.203200*%
%ADD14C,0.152400*%
G04 APERTURE END LIST*
D10*
D11*
X201803000Y-91313000D02*
X199263000Y-91313000D01*
X201803000Y-88773000D02*
X199263000Y-88773000D01*
X199263000Y-88773000D02*
X199263000Y-91313000D01*
X199263000Y-91313000D02*
X199263000Y-93853000D01*
X199263000Y-93853000D02*
X201803000Y-93853000D01*
X201803000Y-93853000D02*
X201803000Y-88773000D01*
X199136000Y-100711000D02*
X201676000Y-100711000D01*
X199136000Y-103251000D02*
X201676000Y-103251000D01*
X201676000Y-103251000D02*
X201676000Y-100711000D01*
X201676000Y-100711000D02*
X201676000Y-98171000D01*
X201676000Y-98171000D02*
X199136000Y-98171000D01*
X199136000Y-98171000D02*
X199136000Y-103251000D01*
X199263000Y-82550000D02*
X201803000Y-82550000D01*
X199263000Y-85090000D02*
X201803000Y-85090000D01*
X201803000Y-85090000D02*
X201803000Y-82550000D01*
X201803000Y-82550000D02*
X201803000Y-80010000D01*
X201803000Y-80010000D02*
X199263000Y-80010000D01*
X199263000Y-80010000D02*
X199263000Y-85090000D01*
X187440000Y-102580000D02*
X187440000Y-107980000D01*
X187310000Y-107980000D02*
X180710000Y-107980000D01*
X180710000Y-107980000D02*
X180710000Y-102580000D01*
X195320000Y-91580000D02*
G75*
G03X195320000Y-91580000I-11400000J0D01*
G74*
G01*
X193667000Y-103290000D02*
X192667000Y-103290000D01*
X192667000Y-104990000D02*
X193667000Y-104990000D01*
D12*
X196215000Y-85852000D02*
X196215000Y-85725000D01*
X196215000Y-85725000D02*
X190881000Y-85725000D01*
X190881000Y-89535000D02*
X196215000Y-89535000D01*
X196215000Y-89535000D02*
X196215000Y-85852000D01*
X196215000Y-88138000D02*
X195707000Y-88138000D01*
X195707000Y-88138000D02*
X195707000Y-87122000D01*
X195707000Y-87122000D02*
X196215000Y-87122000D01*
X190881000Y-89535000D02*
X190881000Y-85725000D01*
D11*
X195820000Y-94396000D02*
X195820000Y-95596000D01*
X194070000Y-95596000D02*
X194070000Y-94396000D01*
X194316000Y-100584000D02*
G75*
G03X194316000Y-100584000I-250000J0D01*
G74*
G01*
X195206000Y-100834000D02*
X192956000Y-100834000D01*
X192916000Y-100334000D02*
X195176000Y-100334000D01*
X195266000Y-100584000D02*
G75*
G03X195266000Y-100584000I-1200000J0D01*
G74*
G01*
X191566000Y-98584000D02*
X191566000Y-102584000D01*
X196066000Y-102584000D02*
X196066000Y-98584000D01*
X196066000Y-98584000D02*
X191566000Y-98584000D01*
X191576000Y-102584000D02*
X196066000Y-102584000D01*
D13*
X180721000Y-93218000D02*
X190373000Y-93218000D01*
X190373000Y-93218000D02*
X190373000Y-97028000D01*
X190373000Y-97028000D02*
X180721000Y-97028000D01*
X180721000Y-97028000D02*
X180721000Y-93218000D01*
X180721000Y-94488000D02*
X181483000Y-94488000D01*
X181483000Y-94488000D02*
X181483000Y-95504000D01*
X181483000Y-95504000D02*
X180721000Y-95504000D01*
X201107524Y-96187381D02*
X199837524Y-96187381D01*
X199837524Y-95703572D01*
X199898000Y-95582619D01*
X199958476Y-95522143D01*
X200079429Y-95461667D01*
X200260857Y-95461667D01*
X200381810Y-95522143D01*
X200442286Y-95582619D01*
X200502762Y-95703572D01*
X200502762Y-96187381D01*
X201107524Y-94252143D02*
X201107524Y-94977857D01*
X201107524Y-94615000D02*
X199837524Y-94615000D01*
X200018952Y-94735952D01*
X200139905Y-94856905D01*
X200200381Y-94977857D01*
X199710524Y-106087333D02*
X200617667Y-106087333D01*
X200799095Y-106147809D01*
X200920048Y-106268761D01*
X200980524Y-106450190D01*
X200980524Y-106571142D01*
X200980524Y-105482571D02*
X199710524Y-105482571D01*
X199710524Y-104998762D01*
X199771000Y-104877809D01*
X199831476Y-104817333D01*
X199952429Y-104756857D01*
X200133857Y-104756857D01*
X200254810Y-104817333D01*
X200315286Y-104877809D01*
X200375762Y-104998762D01*
X200375762Y-105482571D01*
X200980524Y-103547333D02*
X200980524Y-104273047D01*
X200980524Y-103910190D02*
X199710524Y-103910190D01*
X199891952Y-104031142D01*
X200012905Y-104152095D01*
X200073381Y-104273047D01*
X200442286Y-87865857D02*
X200502762Y-87684428D01*
X200563238Y-87623952D01*
X200684190Y-87563476D01*
X200865619Y-87563476D01*
X200986571Y-87623952D01*
X201047048Y-87684428D01*
X201107524Y-87805381D01*
X201107524Y-88289190D01*
X199837524Y-88289190D01*
X199837524Y-87865857D01*
X199898000Y-87744904D01*
X199958476Y-87684428D01*
X200079429Y-87623952D01*
X200200381Y-87623952D01*
X200321333Y-87684428D01*
X200381810Y-87744904D01*
X200442286Y-87865857D01*
X200442286Y-88289190D01*
X199837524Y-87200619D02*
X199837524Y-86474904D01*
X201107524Y-86837761D02*
X199837524Y-86837761D01*
X201107524Y-85386333D02*
X201107524Y-86112047D01*
X201107524Y-85749190D02*
X199837524Y-85749190D01*
X200018952Y-85870142D01*
X200139905Y-85991095D01*
X200200381Y-86112047D01*
D11*
X173827429Y-81426857D02*
X174041715Y-81498286D01*
X174113143Y-81569714D01*
X174184572Y-81712571D01*
X174184572Y-81926857D01*
X174113143Y-82069714D01*
X174041715Y-82141143D01*
X173898857Y-82212571D01*
X173327429Y-82212571D01*
X173327429Y-80712571D01*
X173827429Y-80712571D01*
X173970286Y-80784000D01*
X174041715Y-80855429D01*
X174113143Y-80998286D01*
X174113143Y-81141143D01*
X174041715Y-81284000D01*
X173970286Y-81355429D01*
X173827429Y-81426857D01*
X173327429Y-81426857D01*
X174613143Y-80712571D02*
X175470286Y-80712571D01*
X175041715Y-82212571D02*
X175041715Y-80712571D01*
X175898857Y-80855429D02*
X175970286Y-80784000D01*
X176113143Y-80712571D01*
X176470286Y-80712571D01*
X176613143Y-80784000D01*
X176684572Y-80855429D01*
X176756000Y-80998286D01*
X176756000Y-81141143D01*
X176684572Y-81355429D01*
X175827429Y-82212571D01*
X176756000Y-82212571D01*
X193000334Y-107037143D02*
X192952715Y-107084762D01*
X192809858Y-107132381D01*
X192714620Y-107132381D01*
X192571762Y-107084762D01*
X192476524Y-106989524D01*
X192428905Y-106894286D01*
X192381286Y-106703810D01*
X192381286Y-106560952D01*
X192428905Y-106370476D01*
X192476524Y-106275238D01*
X192571762Y-106180000D01*
X192714620Y-106132381D01*
X192809858Y-106132381D01*
X192952715Y-106180000D01*
X193000334Y-106227619D01*
X193952715Y-107132381D02*
X193381286Y-107132381D01*
X193667000Y-107132381D02*
X193667000Y-106132381D01*
X193571762Y-106275238D01*
X193476524Y-106370476D01*
X193381286Y-106418095D01*
D14*
X193439143Y-89144929D02*
X193330286Y-89090500D01*
X193221429Y-88981643D01*
X193058143Y-88818357D01*
X192949286Y-88763929D01*
X192840429Y-88763929D01*
X192894857Y-89036071D02*
X192786000Y-88981643D01*
X192677143Y-88872786D01*
X192622714Y-88655071D01*
X192622714Y-88274071D01*
X192677143Y-88056357D01*
X192786000Y-87947500D01*
X192894857Y-87893071D01*
X193112571Y-87893071D01*
X193221429Y-87947500D01*
X193330286Y-88056357D01*
X193384714Y-88274071D01*
X193384714Y-88655071D01*
X193330286Y-88872786D01*
X193221429Y-88981643D01*
X193112571Y-89036071D01*
X192894857Y-89036071D01*
X194473286Y-89036071D02*
X193820143Y-89036071D01*
X194146715Y-89036071D02*
X194146715Y-87893071D01*
X194037858Y-88056357D01*
X193929000Y-88165214D01*
X193820143Y-88219643D01*
D11*
X197175381Y-95162666D02*
X196699190Y-95496000D01*
X197175381Y-95734095D02*
X196175381Y-95734095D01*
X196175381Y-95353142D01*
X196223000Y-95257904D01*
X196270619Y-95210285D01*
X196365857Y-95162666D01*
X196508714Y-95162666D01*
X196603952Y-95210285D01*
X196651571Y-95257904D01*
X196699190Y-95353142D01*
X196699190Y-95734095D01*
X197175381Y-94210285D02*
X197175381Y-94781714D01*
X197175381Y-94496000D02*
X196175381Y-94496000D01*
X196318238Y-94591238D01*
X196413476Y-94686476D01*
X196461095Y-94781714D01*
X199434571Y-101506856D02*
X198720286Y-102006856D01*
X199434571Y-102363999D02*
X197934571Y-102363999D01*
X197934571Y-101792571D01*
X198006000Y-101649713D01*
X198077429Y-101578285D01*
X198220286Y-101506856D01*
X198434571Y-101506856D01*
X198577429Y-101578285D01*
X198648857Y-101649713D01*
X198720286Y-101792571D01*
X198720286Y-102363999D01*
X197934571Y-101078285D02*
X199434571Y-100578285D01*
X197934571Y-100078285D01*
X199434571Y-98792571D02*
X199434571Y-99649714D01*
X199434571Y-99221142D02*
X197934571Y-99221142D01*
X198148857Y-99363999D01*
X198291714Y-99506857D01*
X198363143Y-99649714D01*
D12*
X184676143Y-93677619D02*
X184676143Y-94500095D01*
X184730571Y-94596857D01*
X184785000Y-94645238D01*
X184893857Y-94693619D01*
X185111571Y-94693619D01*
X185220429Y-94645238D01*
X185274857Y-94596857D01*
X185329286Y-94500095D01*
X185329286Y-93677619D01*
X186472286Y-94693619D02*
X185819143Y-94693619D01*
X186145715Y-94693619D02*
X186145715Y-93677619D01*
X186036858Y-93822762D01*
X185928000Y-93919524D01*
X185819143Y-93967905D01*
M02*
