%FSLAX46Y46*%
G04 Gerber Fmt 4.6, Leading zero omitted, Abs format (unit mm)*
G04 Created by KiCad (PCBNEW (2014-09-18 BZR 5141)-product) date So 20. září 2014, 01:51:59 CEST*
%MOMM*%
G01*
G04 APERTURE LIST*
%ADD10C,0.100000*%
%ADD11C,0.250000*%
G04 APERTURE END LIST*
D10*
D11*
X164393381Y-104061143D02*
X164441000Y-104108762D01*
X164488619Y-104204000D01*
X164488619Y-104442096D01*
X164441000Y-104537334D01*
X164393381Y-104584953D01*
X164298143Y-104632572D01*
X164202905Y-104632572D01*
X164060048Y-104584953D01*
X163488619Y-104013524D01*
X163488619Y-104632572D01*
X164060048Y-105204000D02*
X164107667Y-105108762D01*
X164155286Y-105061143D01*
X164250524Y-105013524D01*
X164298143Y-105013524D01*
X164393381Y-105061143D01*
X164441000Y-105108762D01*
X164488619Y-105204000D01*
X164488619Y-105394477D01*
X164441000Y-105489715D01*
X164393381Y-105537334D01*
X164298143Y-105584953D01*
X164250524Y-105584953D01*
X164155286Y-105537334D01*
X164107667Y-105489715D01*
X164060048Y-105394477D01*
X164060048Y-105204000D01*
X164012429Y-105108762D01*
X163964810Y-105061143D01*
X163869571Y-105013524D01*
X163679095Y-105013524D01*
X163583857Y-105061143D01*
X163536238Y-105108762D01*
X163488619Y-105204000D01*
X163488619Y-105394477D01*
X163536238Y-105489715D01*
X163583857Y-105537334D01*
X163679095Y-105584953D01*
X163869571Y-105584953D01*
X163964810Y-105537334D01*
X164012429Y-105489715D01*
X164060048Y-105394477D01*
X163536238Y-106061143D02*
X163488619Y-106061143D01*
X163393381Y-106013524D01*
X163345762Y-105965905D01*
X163488619Y-107013524D02*
X163488619Y-106442095D01*
X163488619Y-106727809D02*
X164488619Y-106727809D01*
X164345762Y-106632571D01*
X164250524Y-106537333D01*
X164202905Y-106442095D01*
X163488619Y-107489714D02*
X163488619Y-107680190D01*
X163536238Y-107775429D01*
X163583857Y-107823048D01*
X163726714Y-107918286D01*
X163917190Y-107965905D01*
X164298143Y-107965905D01*
X164393381Y-107918286D01*
X164441000Y-107870667D01*
X164488619Y-107775429D01*
X164488619Y-107584952D01*
X164441000Y-107489714D01*
X164393381Y-107442095D01*
X164298143Y-107394476D01*
X164060048Y-107394476D01*
X163964810Y-107442095D01*
X163917190Y-107489714D01*
X163869571Y-107584952D01*
X163869571Y-107775429D01*
X163917190Y-107870667D01*
X163964810Y-107918286D01*
X164060048Y-107965905D01*
X164155286Y-108823048D02*
X163488619Y-108823048D01*
X164536238Y-108584952D02*
X163821952Y-108346857D01*
X163821952Y-108965905D01*
X163488619Y-110108762D02*
X164155286Y-110108762D01*
X164060048Y-110108762D02*
X164107667Y-110156381D01*
X164155286Y-110251619D01*
X164155286Y-110394477D01*
X164107667Y-110489715D01*
X164012429Y-110537334D01*
X163488619Y-110537334D01*
X164012429Y-110537334D02*
X164107667Y-110584953D01*
X164155286Y-110680191D01*
X164155286Y-110823048D01*
X164107667Y-110918286D01*
X164012429Y-110965905D01*
X163488619Y-110965905D01*
X163488619Y-111442095D02*
X164155286Y-111442095D01*
X164060048Y-111442095D02*
X164107667Y-111489714D01*
X164155286Y-111584952D01*
X164155286Y-111727810D01*
X164107667Y-111823048D01*
X164012429Y-111870667D01*
X163488619Y-111870667D01*
X164012429Y-111870667D02*
X164107667Y-111918286D01*
X164155286Y-112013524D01*
X164155286Y-112156381D01*
X164107667Y-112251619D01*
X164012429Y-112299238D01*
X163488619Y-112299238D01*
X162941000Y-94107000D02*
X162941000Y-122301000D01*
X160401000Y-94107000D02*
X164941000Y-94107000D01*
X160401000Y-122301000D02*
X164941000Y-122301000D01*
X162941000Y-122301000D02*
X162354579Y-121174496D01*
X162941000Y-122301000D02*
X163527421Y-121174496D01*
X162941000Y-94107000D02*
X162354579Y-95233504D01*
X162941000Y-94107000D02*
X163527421Y-95233504D01*
X137033524Y-89892381D02*
X137652572Y-89892381D01*
X137319238Y-90273333D01*
X137462096Y-90273333D01*
X137557334Y-90320952D01*
X137604953Y-90368571D01*
X137652572Y-90463810D01*
X137652572Y-90701905D01*
X137604953Y-90797143D01*
X137557334Y-90844762D01*
X137462096Y-90892381D01*
X137176381Y-90892381D01*
X137081143Y-90844762D01*
X137033524Y-90797143D01*
X138224000Y-90320952D02*
X138128762Y-90273333D01*
X138081143Y-90225714D01*
X138033524Y-90130476D01*
X138033524Y-90082857D01*
X138081143Y-89987619D01*
X138128762Y-89940000D01*
X138224000Y-89892381D01*
X138414477Y-89892381D01*
X138509715Y-89940000D01*
X138557334Y-89987619D01*
X138604953Y-90082857D01*
X138604953Y-90130476D01*
X138557334Y-90225714D01*
X138509715Y-90273333D01*
X138414477Y-90320952D01*
X138224000Y-90320952D01*
X138128762Y-90368571D01*
X138081143Y-90416190D01*
X138033524Y-90511429D01*
X138033524Y-90701905D01*
X138081143Y-90797143D01*
X138128762Y-90844762D01*
X138224000Y-90892381D01*
X138414477Y-90892381D01*
X138509715Y-90844762D01*
X138557334Y-90797143D01*
X138604953Y-90701905D01*
X138604953Y-90511429D01*
X138557334Y-90416190D01*
X138509715Y-90368571D01*
X138414477Y-90320952D01*
X139081143Y-90844762D02*
X139081143Y-90892381D01*
X139033524Y-90987619D01*
X138985905Y-91035238D01*
X139414476Y-89892381D02*
X140033524Y-89892381D01*
X139700190Y-90273333D01*
X139843048Y-90273333D01*
X139938286Y-90320952D01*
X139985905Y-90368571D01*
X140033524Y-90463810D01*
X140033524Y-90701905D01*
X139985905Y-90797143D01*
X139938286Y-90844762D01*
X139843048Y-90892381D01*
X139557333Y-90892381D01*
X139462095Y-90844762D01*
X139414476Y-90797143D01*
X140938286Y-89892381D02*
X140462095Y-89892381D01*
X140414476Y-90368571D01*
X140462095Y-90320952D01*
X140557333Y-90273333D01*
X140795429Y-90273333D01*
X140890667Y-90320952D01*
X140938286Y-90368571D01*
X140985905Y-90463810D01*
X140985905Y-90701905D01*
X140938286Y-90797143D01*
X140890667Y-90844762D01*
X140795429Y-90892381D01*
X140557333Y-90892381D01*
X140462095Y-90844762D01*
X140414476Y-90797143D01*
X141843048Y-90225714D02*
X141843048Y-90892381D01*
X141604952Y-89844762D02*
X141366857Y-90559048D01*
X141985905Y-90559048D01*
X143128762Y-90892381D02*
X143128762Y-90225714D01*
X143128762Y-90320952D02*
X143176381Y-90273333D01*
X143271619Y-90225714D01*
X143414477Y-90225714D01*
X143509715Y-90273333D01*
X143557334Y-90368571D01*
X143557334Y-90892381D01*
X143557334Y-90368571D02*
X143604953Y-90273333D01*
X143700191Y-90225714D01*
X143843048Y-90225714D01*
X143938286Y-90273333D01*
X143985905Y-90368571D01*
X143985905Y-90892381D01*
X144462095Y-90892381D02*
X144462095Y-90225714D01*
X144462095Y-90320952D02*
X144509714Y-90273333D01*
X144604952Y-90225714D01*
X144747810Y-90225714D01*
X144843048Y-90273333D01*
X144890667Y-90368571D01*
X144890667Y-90892381D01*
X144890667Y-90368571D02*
X144938286Y-90273333D01*
X145033524Y-90225714D01*
X145176381Y-90225714D01*
X145271619Y-90273333D01*
X145319238Y-90368571D01*
X145319238Y-90892381D01*
X122047000Y-91440000D02*
X160401000Y-91440000D01*
X122047000Y-94107000D02*
X122047000Y-89440000D01*
X160401000Y-94107000D02*
X160401000Y-89440000D01*
X160401000Y-91440000D02*
X159274496Y-92026421D01*
X160401000Y-91440000D02*
X159274496Y-90853579D01*
X122047000Y-91440000D02*
X123173504Y-92026421D01*
X122047000Y-91440000D02*
X123173504Y-90853579D01*
M02*
