%FSLAX46Y46*%
G04 Gerber Fmt 4.6, Leading zero omitted, Abs format (unit mm)*
G04 Created by KiCad (PCBNEW (2014-09-18 BZR 5141)-product) date So 20. září 2014, 01:51:59 CEST*
%MOMM*%
G01*
G04 APERTURE LIST*
%ADD10C,0.100000*%
%ADD11R,1.501140X1.501140*%
%ADD12R,2.000000X2.000000*%
%ADD13R,1.000000X1.250000*%
%ADD14R,1.250000X1.000000*%
%ADD15R,2.235200X2.235200*%
%ADD16R,1.300000X1.500000*%
%ADD17R,1.143000X0.508000*%
%ADD18R,1.399540X0.599440*%
%ADD19R,1.624000X3.000000*%
%ADD20R,4.100000X3.000000*%
%ADD21C,0.889000*%
%ADD22C,0.500000*%
%ADD23C,0.254000*%
G04 APERTURE END LIST*
D10*
D11*
X137287000Y-120015000D03*
X137287000Y-114935000D03*
D12*
X148961000Y-99804000D03*
X148961000Y-119804000D03*
D13*
X142986000Y-116840000D03*
X140986000Y-116840000D03*
D14*
X156591000Y-114284000D03*
X156591000Y-112284000D03*
D15*
X132334000Y-118745000D03*
D16*
X156591000Y-105236000D03*
X156591000Y-102536000D03*
X156591000Y-107616000D03*
X156591000Y-110316000D03*
D17*
X139065000Y-102997000D03*
X139065000Y-104267000D03*
X139065000Y-105537000D03*
X139065000Y-106807000D03*
X139065000Y-108077000D03*
X139065000Y-109347000D03*
X139065000Y-110617000D03*
X144399000Y-110617000D03*
X144399000Y-109347000D03*
X144399000Y-108077000D03*
X144399000Y-106807000D03*
X144399000Y-105537000D03*
X144399000Y-104267000D03*
X144399000Y-102997000D03*
D18*
X153416000Y-104013000D03*
X148082000Y-104013000D03*
X153416000Y-105283000D03*
X153416000Y-106553000D03*
X153416000Y-107823000D03*
X148082000Y-105283000D03*
X148082000Y-106553000D03*
X148082000Y-107823000D03*
D19*
X132346000Y-98092000D03*
X132346000Y-115102000D03*
X124636000Y-115102000D03*
X124636000Y-98082000D03*
D20*
X128236000Y-98082000D03*
X128236000Y-115102000D03*
D13*
X148352000Y-110998000D03*
X150352000Y-110998000D03*
D14*
X137922000Y-99044000D03*
X137922000Y-97044000D03*
D21*
X158750000Y-120396000D03*
X156718000Y-118364000D03*
X141986000Y-97790000D03*
X141986000Y-100457000D03*
D22*
X139065000Y-110617000D02*
X139954000Y-110617000D01*
X139827000Y-108077000D02*
X139065000Y-108077000D01*
X140231998Y-108481998D02*
X139827000Y-108077000D01*
X140231998Y-110339002D02*
X140231998Y-108481998D01*
X139954000Y-110617000D02*
X140231998Y-110339002D01*
X156591000Y-114284000D02*
X156591000Y-118237000D01*
X158750000Y-120396000D02*
X159385000Y-119761000D01*
X156591000Y-118237000D02*
X156718000Y-118364000D01*
X148082000Y-104013000D02*
X148082000Y-103261417D01*
X148082000Y-103261417D02*
X145277583Y-100457000D01*
X145277583Y-100457000D02*
X142614617Y-100457000D01*
X142614617Y-100457000D02*
X141986000Y-100457000D01*
X142113000Y-100457000D02*
X141986000Y-100457000D01*
X148352000Y-110998000D02*
X148352000Y-110506000D01*
X148121914Y-102147914D02*
X145018000Y-99044000D01*
X145018000Y-99044000D02*
X144002000Y-99044000D01*
X148121914Y-102235000D02*
X149987000Y-102235000D01*
X148121914Y-102235000D02*
X148121914Y-102147914D01*
X148082000Y-107823000D02*
X146882230Y-107823000D01*
X146882230Y-107823000D02*
X145474501Y-106415271D01*
X145474501Y-106415271D02*
X145474501Y-103609799D01*
X145474501Y-103609799D02*
X144861702Y-102997000D01*
X144861702Y-102997000D02*
X144399000Y-102997000D01*
X132346000Y-98092000D02*
X134922000Y-98092000D01*
X135874000Y-99044000D02*
X137922000Y-99044000D01*
X134922000Y-98092000D02*
X135874000Y-99044000D01*
X153416000Y-104013000D02*
X153416000Y-102997000D01*
X153877000Y-102536000D02*
X156591000Y-102536000D01*
X153416000Y-102997000D02*
X153877000Y-102536000D01*
X137922000Y-99044000D02*
X144002000Y-99044000D01*
X151765000Y-104013000D02*
X153416000Y-104013000D01*
X149987000Y-102235000D02*
X151765000Y-104013000D01*
X153543000Y-103886000D02*
X153416000Y-104013000D01*
X148082000Y-117221000D02*
X148961000Y-118100000D01*
X148961000Y-118100000D02*
X148961000Y-119804000D01*
X148082000Y-116713000D02*
X148082000Y-117221000D01*
X148082000Y-113792000D02*
X148082000Y-116713000D01*
X148082000Y-112649000D02*
X148082000Y-113792000D01*
X148082000Y-107823000D02*
X148082000Y-110236000D01*
X148082000Y-110236000D02*
X148082000Y-112649000D01*
X157310000Y-119804000D02*
X158369000Y-118745000D01*
X148961000Y-119804000D02*
X157310000Y-119804000D01*
X157654000Y-102536000D02*
X156591000Y-102536000D01*
X158369000Y-103251000D02*
X157654000Y-102536000D01*
X158369000Y-118745000D02*
X158369000Y-103251000D01*
X140081000Y-105537000D02*
X140986000Y-106442000D01*
X140986000Y-106442000D02*
X140986000Y-116840000D01*
X139065000Y-105537000D02*
X140081000Y-105537000D01*
X139700000Y-120015000D02*
X140986000Y-118729000D01*
X140986000Y-118729000D02*
X140986000Y-116840000D01*
X137287000Y-120015000D02*
X139700000Y-120015000D01*
X156591000Y-112284000D02*
X156591000Y-110316000D01*
X154686000Y-106553000D02*
X155194000Y-107061000D01*
X155194000Y-107061000D02*
X155194000Y-109982000D01*
X155194000Y-109982000D02*
X155528000Y-110316000D01*
X155528000Y-110316000D02*
X156591000Y-110316000D01*
X153416000Y-106553000D02*
X154686000Y-106553000D01*
X149860000Y-105283000D02*
X151130000Y-106553000D01*
X151130000Y-106553000D02*
X153416000Y-106553000D01*
X148082000Y-105283000D02*
X149860000Y-105283000D01*
X132334000Y-115114000D02*
X132346000Y-115102000D01*
X132334000Y-115114000D02*
X132346000Y-115102000D01*
X132334000Y-118745000D02*
X132334000Y-115114000D01*
X156591000Y-105330000D02*
X156591000Y-107616000D01*
X156544000Y-105283000D02*
X156591000Y-105330000D01*
X153416000Y-105283000D02*
X156544000Y-105283000D01*
X124636000Y-107901000D02*
X125730000Y-106807000D01*
X137414000Y-106807000D02*
X139065000Y-106807000D01*
X135763000Y-106807000D02*
X137414000Y-106807000D01*
X133096000Y-106807000D02*
X135763000Y-106807000D01*
X125730000Y-106807000D02*
X133096000Y-106807000D01*
X124636000Y-115102000D02*
X124636000Y-107901000D01*
X137287000Y-106934000D02*
X137414000Y-106807000D01*
X137287000Y-114935000D02*
X137287000Y-106934000D01*
X148082000Y-106553000D02*
X146882230Y-106553000D01*
X146882230Y-106553000D02*
X146878229Y-106548999D01*
X146878229Y-106548999D02*
X146878229Y-106492229D01*
X140140501Y-102238999D02*
X139382500Y-102997000D01*
X146878229Y-106492229D02*
X146304000Y-105918000D01*
X146304000Y-105918000D02*
X146304000Y-103169298D01*
X146304000Y-103169298D02*
X145373701Y-102238999D01*
X145373701Y-102238999D02*
X140140501Y-102238999D01*
X139382500Y-102997000D02*
X139065000Y-102997000D01*
X124636000Y-98082000D02*
X124636000Y-102030000D01*
X126873000Y-104267000D02*
X139065000Y-104267000D01*
X124636000Y-102030000D02*
X126873000Y-104267000D01*
D23*
G36*
X139212000Y-108204000D02*
X139192000Y-108204000D01*
X139192000Y-108224000D01*
X138938000Y-108224000D01*
X138938000Y-108204000D01*
X138918000Y-108204000D01*
X138918000Y-107950000D01*
X138938000Y-107950000D01*
X138938000Y-107930000D01*
X139192000Y-107930000D01*
X139192000Y-107950000D01*
X139212000Y-107950000D01*
X139212000Y-108204000D01*
X139212000Y-108204000D01*
G37*
X139212000Y-108204000D02*
X139192000Y-108204000D01*
X139192000Y-108224000D01*
X138938000Y-108224000D01*
X138938000Y-108204000D01*
X138918000Y-108204000D01*
X138918000Y-107950000D01*
X138938000Y-107950000D01*
X138938000Y-107930000D01*
X139192000Y-107930000D01*
X139192000Y-107950000D01*
X139212000Y-107950000D01*
X139212000Y-108204000D01*
G36*
X152081230Y-105668000D02*
X151496579Y-105668000D01*
X150485790Y-104657210D01*
X150198675Y-104465367D01*
X150142484Y-104454189D01*
X149860000Y-104397999D01*
X149859994Y-104398000D01*
X149416770Y-104398000D01*
X149416770Y-104298750D01*
X149258020Y-104140000D01*
X148209000Y-104140000D01*
X148209000Y-104160000D01*
X147955000Y-104160000D01*
X147955000Y-104140000D01*
X147935000Y-104140000D01*
X147935000Y-103886000D01*
X147955000Y-103886000D01*
X147955000Y-103866000D01*
X148209000Y-103866000D01*
X148209000Y-103886000D01*
X149258020Y-103886000D01*
X149416770Y-103727250D01*
X149416770Y-103586971D01*
X149320097Y-103353582D01*
X149141469Y-103174953D01*
X149008800Y-103120000D01*
X149620420Y-103120000D01*
X151139207Y-104638786D01*
X151139210Y-104638790D01*
X151139211Y-104638790D01*
X151426325Y-104830633D01*
X151426326Y-104830633D01*
X151482515Y-104841810D01*
X151765000Y-104898001D01*
X151765000Y-104898000D01*
X151765005Y-104898000D01*
X152081230Y-104898000D01*
X152081230Y-105109589D01*
X152081230Y-105668000D01*
X152081230Y-105668000D01*
G37*
X152081230Y-105668000D02*
X151496579Y-105668000D01*
X150485790Y-104657210D01*
X150198675Y-104465367D01*
X150142484Y-104454189D01*
X149860000Y-104397999D01*
X149859994Y-104398000D01*
X149416770Y-104398000D01*
X149416770Y-104298750D01*
X149258020Y-104140000D01*
X148209000Y-104140000D01*
X148209000Y-104160000D01*
X147955000Y-104160000D01*
X147955000Y-104140000D01*
X147935000Y-104140000D01*
X147935000Y-103886000D01*
X147955000Y-103886000D01*
X147955000Y-103866000D01*
X148209000Y-103866000D01*
X148209000Y-103886000D01*
X149258020Y-103886000D01*
X149416770Y-103727250D01*
X149416770Y-103586971D01*
X149320097Y-103353582D01*
X149141469Y-103174953D01*
X149008800Y-103120000D01*
X149620420Y-103120000D01*
X151139207Y-104638786D01*
X151139210Y-104638790D01*
X151139211Y-104638790D01*
X151426325Y-104830633D01*
X151426326Y-104830633D01*
X151482515Y-104841810D01*
X151765000Y-104898001D01*
X151765000Y-104898000D01*
X151765005Y-104898000D01*
X152081230Y-104898000D01*
X152081230Y-105109589D01*
X152081230Y-105668000D01*
G36*
X157484000Y-118378420D02*
X156943420Y-118919000D01*
X156464000Y-118919000D01*
X156464000Y-115260250D01*
X156464000Y-114411000D01*
X155489750Y-114411000D01*
X155331000Y-114569750D01*
X155331000Y-114910309D01*
X155427673Y-115143698D01*
X155606301Y-115322327D01*
X155839690Y-115419000D01*
X156092309Y-115419000D01*
X156305250Y-115419000D01*
X156464000Y-115260250D01*
X156464000Y-118919000D01*
X151487000Y-118919000D01*
X151487000Y-111749310D01*
X151487000Y-111496691D01*
X151487000Y-111283750D01*
X151487000Y-110712250D01*
X151487000Y-110499309D01*
X151487000Y-110246690D01*
X151390327Y-110013301D01*
X151211698Y-109834673D01*
X150978309Y-109738000D01*
X150637750Y-109738000D01*
X150479000Y-109896750D01*
X150479000Y-110871000D01*
X151328250Y-110871000D01*
X151487000Y-110712250D01*
X151487000Y-111283750D01*
X151328250Y-111125000D01*
X150479000Y-111125000D01*
X150479000Y-112099250D01*
X150637750Y-112258000D01*
X150978309Y-112258000D01*
X151211698Y-112161327D01*
X151390327Y-111982699D01*
X151487000Y-111749310D01*
X151487000Y-118919000D01*
X150596000Y-118919000D01*
X150596000Y-118677691D01*
X150499327Y-118444302D01*
X150320699Y-118265673D01*
X150087310Y-118169000D01*
X149846000Y-118169000D01*
X149846000Y-118100005D01*
X149846000Y-118100000D01*
X149846001Y-118100000D01*
X149789810Y-117817515D01*
X149778633Y-117761326D01*
X149778633Y-117761325D01*
X149586790Y-117474211D01*
X149586790Y-117474210D01*
X149586786Y-117474207D01*
X148967000Y-116854420D01*
X148967000Y-116713000D01*
X148967000Y-113792000D01*
X148967000Y-112649000D01*
X148967000Y-112258000D01*
X148978309Y-112258000D01*
X149211698Y-112161327D01*
X149352000Y-112021025D01*
X149492302Y-112161327D01*
X149725691Y-112258000D01*
X150066250Y-112258000D01*
X150225000Y-112099250D01*
X150225000Y-111125000D01*
X150205000Y-111125000D01*
X150205000Y-110871000D01*
X150225000Y-110871000D01*
X150225000Y-109896750D01*
X150066250Y-109738000D01*
X149725691Y-109738000D01*
X149492302Y-109834673D01*
X149351999Y-109974974D01*
X149211699Y-109834673D01*
X148978310Y-109738000D01*
X148967000Y-109738000D01*
X148967000Y-108733314D01*
X149141468Y-108661047D01*
X149320097Y-108482419D01*
X149416770Y-108249030D01*
X149416770Y-107996411D01*
X149416770Y-107396971D01*
X149330211Y-107188000D01*
X149416770Y-106979030D01*
X149416770Y-106726411D01*
X149416770Y-106168000D01*
X149493420Y-106168000D01*
X150504207Y-107178786D01*
X150504210Y-107178790D01*
X150791325Y-107370633D01*
X151130000Y-107438001D01*
X151130000Y-107438000D01*
X151130005Y-107438000D01*
X152081230Y-107438000D01*
X152081230Y-107649589D01*
X152081230Y-108249029D01*
X152177903Y-108482418D01*
X152356531Y-108661047D01*
X152589920Y-108757720D01*
X152842539Y-108757720D01*
X154242079Y-108757720D01*
X154309000Y-108730000D01*
X154309000Y-109981994D01*
X154308999Y-109982000D01*
X154365189Y-110264484D01*
X154376367Y-110320675D01*
X154568210Y-110607790D01*
X154902207Y-110941786D01*
X154902210Y-110941790D01*
X155189325Y-111133633D01*
X155306000Y-111156841D01*
X155306000Y-111192309D01*
X155402673Y-111425698D01*
X155419941Y-111442966D01*
X155331000Y-111657690D01*
X155331000Y-111910309D01*
X155331000Y-112910309D01*
X155427673Y-113143698D01*
X155567974Y-113284000D01*
X155427673Y-113424302D01*
X155331000Y-113657691D01*
X155331000Y-113998250D01*
X155489750Y-114157000D01*
X156464000Y-114157000D01*
X156464000Y-114137000D01*
X156718000Y-114137000D01*
X156718000Y-114157000D01*
X156738000Y-114157000D01*
X156738000Y-114411000D01*
X156718000Y-114411000D01*
X156718000Y-115260250D01*
X156876750Y-115419000D01*
X157089691Y-115419000D01*
X157342310Y-115419000D01*
X157484000Y-115360310D01*
X157484000Y-118378420D01*
X157484000Y-118378420D01*
G37*
X157484000Y-118378420D02*
X156943420Y-118919000D01*
X156464000Y-118919000D01*
X156464000Y-115260250D01*
X156464000Y-114411000D01*
X155489750Y-114411000D01*
X155331000Y-114569750D01*
X155331000Y-114910309D01*
X155427673Y-115143698D01*
X155606301Y-115322327D01*
X155839690Y-115419000D01*
X156092309Y-115419000D01*
X156305250Y-115419000D01*
X156464000Y-115260250D01*
X156464000Y-118919000D01*
X151487000Y-118919000D01*
X151487000Y-111749310D01*
X151487000Y-111496691D01*
X151487000Y-111283750D01*
X151487000Y-110712250D01*
X151487000Y-110499309D01*
X151487000Y-110246690D01*
X151390327Y-110013301D01*
X151211698Y-109834673D01*
X150978309Y-109738000D01*
X150637750Y-109738000D01*
X150479000Y-109896750D01*
X150479000Y-110871000D01*
X151328250Y-110871000D01*
X151487000Y-110712250D01*
X151487000Y-111283750D01*
X151328250Y-111125000D01*
X150479000Y-111125000D01*
X150479000Y-112099250D01*
X150637750Y-112258000D01*
X150978309Y-112258000D01*
X151211698Y-112161327D01*
X151390327Y-111982699D01*
X151487000Y-111749310D01*
X151487000Y-118919000D01*
X150596000Y-118919000D01*
X150596000Y-118677691D01*
X150499327Y-118444302D01*
X150320699Y-118265673D01*
X150087310Y-118169000D01*
X149846000Y-118169000D01*
X149846000Y-118100005D01*
X149846000Y-118100000D01*
X149846001Y-118100000D01*
X149789810Y-117817515D01*
X149778633Y-117761326D01*
X149778633Y-117761325D01*
X149586790Y-117474211D01*
X149586790Y-117474210D01*
X149586786Y-117474207D01*
X148967000Y-116854420D01*
X148967000Y-116713000D01*
X148967000Y-113792000D01*
X148967000Y-112649000D01*
X148967000Y-112258000D01*
X148978309Y-112258000D01*
X149211698Y-112161327D01*
X149352000Y-112021025D01*
X149492302Y-112161327D01*
X149725691Y-112258000D01*
X150066250Y-112258000D01*
X150225000Y-112099250D01*
X150225000Y-111125000D01*
X150205000Y-111125000D01*
X150205000Y-110871000D01*
X150225000Y-110871000D01*
X150225000Y-109896750D01*
X150066250Y-109738000D01*
X149725691Y-109738000D01*
X149492302Y-109834673D01*
X149351999Y-109974974D01*
X149211699Y-109834673D01*
X148978310Y-109738000D01*
X148967000Y-109738000D01*
X148967000Y-108733314D01*
X149141468Y-108661047D01*
X149320097Y-108482419D01*
X149416770Y-108249030D01*
X149416770Y-107996411D01*
X149416770Y-107396971D01*
X149330211Y-107188000D01*
X149416770Y-106979030D01*
X149416770Y-106726411D01*
X149416770Y-106168000D01*
X149493420Y-106168000D01*
X150504207Y-107178786D01*
X150504210Y-107178790D01*
X150791325Y-107370633D01*
X151130000Y-107438001D01*
X151130000Y-107438000D01*
X151130005Y-107438000D01*
X152081230Y-107438000D01*
X152081230Y-107649589D01*
X152081230Y-108249029D01*
X152177903Y-108482418D01*
X152356531Y-108661047D01*
X152589920Y-108757720D01*
X152842539Y-108757720D01*
X154242079Y-108757720D01*
X154309000Y-108730000D01*
X154309000Y-109981994D01*
X154308999Y-109982000D01*
X154365189Y-110264484D01*
X154376367Y-110320675D01*
X154568210Y-110607790D01*
X154902207Y-110941786D01*
X154902210Y-110941790D01*
X155189325Y-111133633D01*
X155306000Y-111156841D01*
X155306000Y-111192309D01*
X155402673Y-111425698D01*
X155419941Y-111442966D01*
X155331000Y-111657690D01*
X155331000Y-111910309D01*
X155331000Y-112910309D01*
X155427673Y-113143698D01*
X155567974Y-113284000D01*
X155427673Y-113424302D01*
X155331000Y-113657691D01*
X155331000Y-113998250D01*
X155489750Y-114157000D01*
X156464000Y-114157000D01*
X156464000Y-114137000D01*
X156718000Y-114137000D01*
X156718000Y-114157000D01*
X156738000Y-114157000D01*
X156738000Y-114411000D01*
X156718000Y-114411000D01*
X156718000Y-115260250D01*
X156876750Y-115419000D01*
X157089691Y-115419000D01*
X157342310Y-115419000D01*
X157484000Y-115360310D01*
X157484000Y-118378420D01*
G36*
X159691000Y-121539000D02*
X159254001Y-121539000D01*
X159254001Y-118745000D01*
X159254000Y-118744994D01*
X159254000Y-103251005D01*
X159254000Y-103251000D01*
X159254001Y-103251000D01*
X159197810Y-102968515D01*
X159186633Y-102912326D01*
X159186633Y-102912325D01*
X158994790Y-102625211D01*
X158994790Y-102625210D01*
X158994786Y-102625207D01*
X158279790Y-101910210D01*
X157992675Y-101718367D01*
X157936484Y-101707189D01*
X157876000Y-101695158D01*
X157876000Y-101659691D01*
X157779327Y-101426302D01*
X157600699Y-101247673D01*
X157367310Y-101151000D01*
X157114691Y-101151000D01*
X155814691Y-101151000D01*
X155581302Y-101247673D01*
X155402673Y-101426301D01*
X155309599Y-101651000D01*
X153877000Y-101651000D01*
X153538325Y-101718367D01*
X153251210Y-101910210D01*
X153251207Y-101910213D01*
X152790210Y-102371210D01*
X152598367Y-102658325D01*
X152587189Y-102714515D01*
X152530999Y-102997000D01*
X152531000Y-102997005D01*
X152531000Y-103102685D01*
X152469886Y-103128000D01*
X152131579Y-103128000D01*
X150612790Y-101609210D01*
X150325675Y-101417367D01*
X150269484Y-101406189D01*
X150199924Y-101392353D01*
X150320698Y-101342327D01*
X150499327Y-101163699D01*
X150596000Y-100930310D01*
X150596000Y-100677691D01*
X150596000Y-100089750D01*
X150596000Y-99518250D01*
X150596000Y-98930309D01*
X150596000Y-98677690D01*
X150499327Y-98444301D01*
X150320698Y-98265673D01*
X150087309Y-98169000D01*
X149246750Y-98169000D01*
X149088000Y-98327750D01*
X149088000Y-99677000D01*
X150437250Y-99677000D01*
X150596000Y-99518250D01*
X150596000Y-100089750D01*
X150437250Y-99931000D01*
X149088000Y-99931000D01*
X149088000Y-99951000D01*
X148834000Y-99951000D01*
X148834000Y-99931000D01*
X148834000Y-99677000D01*
X148834000Y-98327750D01*
X148675250Y-98169000D01*
X147834691Y-98169000D01*
X147601302Y-98265673D01*
X147422673Y-98444301D01*
X147326000Y-98677690D01*
X147326000Y-98930309D01*
X147326000Y-99518250D01*
X147484750Y-99677000D01*
X148834000Y-99677000D01*
X148834000Y-99931000D01*
X147484750Y-99931000D01*
X147326000Y-100089750D01*
X147326000Y-100100420D01*
X145643790Y-98418210D01*
X145356675Y-98226367D01*
X145300484Y-98215189D01*
X145018000Y-98158999D01*
X145017994Y-98159000D01*
X144002000Y-98159000D01*
X139060025Y-98159000D01*
X138945025Y-98044000D01*
X139085327Y-97903698D01*
X139182000Y-97670309D01*
X139182000Y-97329750D01*
X139182000Y-96758250D01*
X139182000Y-96417691D01*
X139085327Y-96184302D01*
X138906699Y-96005673D01*
X138673310Y-95909000D01*
X138420691Y-95909000D01*
X138207750Y-95909000D01*
X138049000Y-96067750D01*
X138049000Y-96917000D01*
X139023250Y-96917000D01*
X139182000Y-96758250D01*
X139182000Y-97329750D01*
X139023250Y-97171000D01*
X138049000Y-97171000D01*
X138049000Y-97191000D01*
X137795000Y-97191000D01*
X137795000Y-97171000D01*
X137795000Y-96917000D01*
X137795000Y-96067750D01*
X137636250Y-95909000D01*
X137423309Y-95909000D01*
X137170690Y-95909000D01*
X136937301Y-96005673D01*
X136758673Y-96184302D01*
X136662000Y-96417691D01*
X136662000Y-96758250D01*
X136820750Y-96917000D01*
X137795000Y-96917000D01*
X137795000Y-97171000D01*
X136820750Y-97171000D01*
X136662000Y-97329750D01*
X136662000Y-97670309D01*
X136758673Y-97903698D01*
X136898974Y-98044000D01*
X136783974Y-98159000D01*
X136240579Y-98159000D01*
X135547790Y-97466210D01*
X135260675Y-97274367D01*
X135204484Y-97263189D01*
X134922000Y-97206999D01*
X134921994Y-97207000D01*
X133793000Y-97207000D01*
X133793000Y-96465691D01*
X133696327Y-96232302D01*
X133517699Y-96053673D01*
X133284310Y-95957000D01*
X133031691Y-95957000D01*
X131407691Y-95957000D01*
X131174302Y-96053673D01*
X130995673Y-96232301D01*
X130912070Y-96434134D01*
X130824327Y-96222302D01*
X130645699Y-96043673D01*
X130412310Y-95947000D01*
X130159691Y-95947000D01*
X128521750Y-95947000D01*
X128363000Y-96105750D01*
X128363000Y-97955000D01*
X128383000Y-97955000D01*
X128383000Y-98209000D01*
X128363000Y-98209000D01*
X128363000Y-100058250D01*
X128521750Y-100217000D01*
X130159691Y-100217000D01*
X130412310Y-100217000D01*
X130645699Y-100120327D01*
X130824327Y-99941698D01*
X130907928Y-99739865D01*
X130995673Y-99951698D01*
X131174301Y-100130327D01*
X131407690Y-100227000D01*
X131660309Y-100227000D01*
X133284309Y-100227000D01*
X133517698Y-100130327D01*
X133696327Y-99951699D01*
X133793000Y-99718310D01*
X133793000Y-99465691D01*
X133793000Y-98977000D01*
X134555420Y-98977000D01*
X135248207Y-99669786D01*
X135248210Y-99669790D01*
X135535325Y-99861633D01*
X135874000Y-99929000D01*
X136783974Y-99929000D01*
X136937301Y-100082327D01*
X137170690Y-100179000D01*
X137423309Y-100179000D01*
X138673309Y-100179000D01*
X138906698Y-100082327D01*
X139060025Y-99929000D01*
X144002000Y-99929000D01*
X144651420Y-99929000D01*
X147320762Y-102598341D01*
X147496124Y-102860790D01*
X147783239Y-103052633D01*
X147954998Y-103086798D01*
X147954998Y-103237028D01*
X147796250Y-103078280D01*
X147508539Y-103078280D01*
X147255920Y-103078280D01*
X147177367Y-103110817D01*
X147121633Y-102830623D01*
X146929790Y-102543508D01*
X146929786Y-102543505D01*
X145999491Y-101613209D01*
X145712376Y-101421366D01*
X145656185Y-101410188D01*
X145373701Y-101353998D01*
X145373695Y-101353999D01*
X140140501Y-101353999D01*
X139801826Y-101421366D01*
X139514711Y-101613209D01*
X139514708Y-101613212D01*
X139019920Y-102108000D01*
X138367191Y-102108000D01*
X138133802Y-102204673D01*
X137955173Y-102383301D01*
X137858500Y-102616690D01*
X137858500Y-102869309D01*
X137858500Y-103377309D01*
X137860443Y-103382000D01*
X127239579Y-103382000D01*
X125521000Y-101663420D01*
X125521000Y-100217000D01*
X125574309Y-100217000D01*
X125807698Y-100120327D01*
X125816999Y-100111025D01*
X125826301Y-100120327D01*
X126059690Y-100217000D01*
X126312309Y-100217000D01*
X127950250Y-100217000D01*
X128109000Y-100058250D01*
X128109000Y-98209000D01*
X128089000Y-98209000D01*
X128089000Y-97955000D01*
X128109000Y-97955000D01*
X128109000Y-96105750D01*
X127950250Y-95947000D01*
X126312309Y-95947000D01*
X126059690Y-95947000D01*
X125826301Y-96043673D01*
X125817000Y-96052974D01*
X125807699Y-96043673D01*
X125574310Y-95947000D01*
X125321691Y-95947000D01*
X123697691Y-95947000D01*
X123464302Y-96043673D01*
X123285673Y-96222301D01*
X123189000Y-96455690D01*
X123189000Y-96708309D01*
X123189000Y-99708309D01*
X123285673Y-99941698D01*
X123464301Y-100120327D01*
X123697690Y-100217000D01*
X123751000Y-100217000D01*
X123751000Y-102029994D01*
X123750999Y-102030000D01*
X123807189Y-102312484D01*
X123818367Y-102368675D01*
X124010210Y-102655790D01*
X126247207Y-104892786D01*
X126247210Y-104892790D01*
X126247211Y-104892790D01*
X126534325Y-105084633D01*
X126534326Y-105084633D01*
X126590515Y-105095810D01*
X126873000Y-105152001D01*
X126873000Y-105152000D01*
X126873005Y-105152000D01*
X137860442Y-105152000D01*
X137858500Y-105156690D01*
X137858500Y-105409309D01*
X137858500Y-105917309D01*
X137860443Y-105922000D01*
X137414005Y-105922000D01*
X137414000Y-105921999D01*
X137413994Y-105922000D01*
X135763000Y-105922000D01*
X133096000Y-105922000D01*
X125730005Y-105922000D01*
X125730000Y-105921999D01*
X125447515Y-105978189D01*
X125391325Y-105989367D01*
X125104210Y-106181210D01*
X125104207Y-106181213D01*
X124010210Y-107275210D01*
X123818367Y-107562325D01*
X123807189Y-107618515D01*
X123750999Y-107901000D01*
X123751000Y-107901005D01*
X123751000Y-112967000D01*
X123697691Y-112967000D01*
X123464302Y-113063673D01*
X123285673Y-113242301D01*
X123189000Y-113475690D01*
X123189000Y-113728309D01*
X123189000Y-116728309D01*
X123285673Y-116961698D01*
X123464301Y-117140327D01*
X123697690Y-117237000D01*
X123950309Y-117237000D01*
X125574309Y-117237000D01*
X125807698Y-117140327D01*
X125816999Y-117131025D01*
X125826301Y-117140327D01*
X126059690Y-117237000D01*
X126312309Y-117237000D01*
X127950250Y-117237000D01*
X128109000Y-117078250D01*
X128109000Y-115229000D01*
X128089000Y-115229000D01*
X128089000Y-114975000D01*
X128109000Y-114975000D01*
X128109000Y-113125750D01*
X127950250Y-112967000D01*
X126312309Y-112967000D01*
X126059690Y-112967000D01*
X125826301Y-113063673D01*
X125817000Y-113072974D01*
X125807699Y-113063673D01*
X125574310Y-112967000D01*
X125521000Y-112967000D01*
X125521000Y-108267579D01*
X126096579Y-107692000D01*
X133096000Y-107692000D01*
X135763000Y-107692000D01*
X136402000Y-107692000D01*
X136402000Y-113552793D01*
X136176732Y-113646103D01*
X135998103Y-113824731D01*
X135901430Y-114058120D01*
X135901430Y-114310739D01*
X135901430Y-115811879D01*
X135998103Y-116045268D01*
X136176731Y-116223897D01*
X136410120Y-116320570D01*
X136662739Y-116320570D01*
X138163879Y-116320570D01*
X138397268Y-116223897D01*
X138575897Y-116045269D01*
X138672570Y-115811880D01*
X138672570Y-115559261D01*
X138672570Y-114058121D01*
X138575897Y-113824732D01*
X138397269Y-113646103D01*
X138172000Y-113552793D01*
X138172000Y-111425149D01*
X138367190Y-111506000D01*
X138619809Y-111506000D01*
X138779250Y-111506000D01*
X138938000Y-111347250D01*
X138938000Y-110744000D01*
X138918000Y-110744000D01*
X138918000Y-110490000D01*
X138938000Y-110490000D01*
X138938000Y-110470000D01*
X139192000Y-110470000D01*
X139192000Y-110490000D01*
X139212000Y-110490000D01*
X139212000Y-110744000D01*
X139192000Y-110744000D01*
X139192000Y-111347250D01*
X139350750Y-111506000D01*
X139510191Y-111506000D01*
X139762810Y-111506000D01*
X139996199Y-111409327D01*
X140101000Y-111304525D01*
X140101000Y-115701974D01*
X139947673Y-115855301D01*
X139851000Y-116088690D01*
X139851000Y-116341309D01*
X139851000Y-117591309D01*
X139947673Y-117824698D01*
X140101000Y-117978025D01*
X140101000Y-118362420D01*
X139333420Y-119130000D01*
X138669206Y-119130000D01*
X138575897Y-118904732D01*
X138397269Y-118726103D01*
X138163880Y-118629430D01*
X137911261Y-118629430D01*
X136410121Y-118629430D01*
X136176732Y-118726103D01*
X135998103Y-118904731D01*
X135901430Y-119138120D01*
X135901430Y-119390739D01*
X135901430Y-120891879D01*
X135998103Y-121125268D01*
X136176731Y-121303897D01*
X136410120Y-121400570D01*
X136662739Y-121400570D01*
X138163879Y-121400570D01*
X138397268Y-121303897D01*
X138575897Y-121125269D01*
X138669206Y-120900000D01*
X139699994Y-120900000D01*
X139700000Y-120900001D01*
X139700000Y-120900000D01*
X139982484Y-120843810D01*
X140038674Y-120832633D01*
X140038675Y-120832633D01*
X140325790Y-120640790D01*
X141611786Y-119354792D01*
X141611790Y-119354790D01*
X141611790Y-119354789D01*
X141803633Y-119067675D01*
X141803633Y-119067674D01*
X141814810Y-119011484D01*
X141871000Y-118729000D01*
X141871001Y-118729000D01*
X141871000Y-118728994D01*
X141871000Y-117978025D01*
X141986000Y-117863025D01*
X142126302Y-118003327D01*
X142359691Y-118100000D01*
X142700250Y-118100000D01*
X142859000Y-117941250D01*
X142859000Y-116967000D01*
X142839000Y-116967000D01*
X142839000Y-116713000D01*
X142859000Y-116713000D01*
X142859000Y-115738750D01*
X142700250Y-115580000D01*
X142359691Y-115580000D01*
X142126302Y-115676673D01*
X141985999Y-115816974D01*
X141871000Y-115701974D01*
X141871000Y-106442005D01*
X141871000Y-106442000D01*
X141871001Y-106442000D01*
X141803633Y-106103325D01*
X141611790Y-105816210D01*
X141611786Y-105816207D01*
X140706790Y-104911210D01*
X140419675Y-104719367D01*
X140363484Y-104708189D01*
X140255204Y-104686651D01*
X140271500Y-104647310D01*
X140271500Y-104394691D01*
X140271500Y-103886691D01*
X140174827Y-103653302D01*
X140153525Y-103632000D01*
X140174827Y-103610699D01*
X140271500Y-103377310D01*
X140271500Y-103359579D01*
X140507080Y-103123999D01*
X143192500Y-103123999D01*
X143192500Y-103377309D01*
X143289173Y-103610698D01*
X143310474Y-103632000D01*
X143289173Y-103653302D01*
X143192500Y-103886691D01*
X143192500Y-103981250D01*
X143351250Y-104140000D01*
X144272000Y-104140000D01*
X144272000Y-104120000D01*
X144526000Y-104120000D01*
X144526000Y-104140000D01*
X144546000Y-104140000D01*
X144546000Y-104394000D01*
X144526000Y-104394000D01*
X144526000Y-104414000D01*
X144272000Y-104414000D01*
X144272000Y-104394000D01*
X143351250Y-104394000D01*
X143192500Y-104552750D01*
X143192500Y-104647309D01*
X143289173Y-104880698D01*
X143310474Y-104901999D01*
X143289173Y-104923301D01*
X143192500Y-105156690D01*
X143192500Y-105409309D01*
X143192500Y-105917309D01*
X143289173Y-106150698D01*
X143310474Y-106172000D01*
X143289173Y-106193302D01*
X143192500Y-106426691D01*
X143192500Y-106521250D01*
X143351250Y-106680000D01*
X144272000Y-106680000D01*
X144272000Y-106660000D01*
X144526000Y-106660000D01*
X144526000Y-106680000D01*
X144546000Y-106680000D01*
X144546000Y-106934000D01*
X144526000Y-106934000D01*
X144526000Y-106954000D01*
X144272000Y-106954000D01*
X144272000Y-106934000D01*
X143351250Y-106934000D01*
X143192500Y-107092750D01*
X143192500Y-107187309D01*
X143289173Y-107420698D01*
X143310474Y-107441999D01*
X143289173Y-107463301D01*
X143192500Y-107696690D01*
X143192500Y-107949309D01*
X143192500Y-108457309D01*
X143289173Y-108690698D01*
X143310474Y-108712000D01*
X143289173Y-108733302D01*
X143192500Y-108966691D01*
X143192500Y-109061250D01*
X143351250Y-109220000D01*
X144272000Y-109220000D01*
X144272000Y-109200000D01*
X144526000Y-109200000D01*
X144526000Y-109220000D01*
X145446750Y-109220000D01*
X145605500Y-109061250D01*
X145605500Y-108966691D01*
X145508827Y-108733302D01*
X145487525Y-108712000D01*
X145508827Y-108690699D01*
X145605500Y-108457310D01*
X145605500Y-108204691D01*
X145605500Y-107797849D01*
X146256437Y-108448786D01*
X146256440Y-108448790D01*
X146543555Y-108640633D01*
X146882230Y-108708000D01*
X147135885Y-108708000D01*
X147197000Y-108733314D01*
X147197000Y-110236000D01*
X147197000Y-112649000D01*
X147197000Y-113792000D01*
X147197000Y-116713000D01*
X147197000Y-117220994D01*
X147196999Y-117221000D01*
X147253189Y-117503484D01*
X147264367Y-117559675D01*
X147456210Y-117846790D01*
X147794901Y-118185481D01*
X147601302Y-118265673D01*
X147422673Y-118444301D01*
X147326000Y-118677690D01*
X147326000Y-118930309D01*
X147326000Y-120930309D01*
X147422673Y-121163698D01*
X147601301Y-121342327D01*
X147834690Y-121439000D01*
X148087309Y-121439000D01*
X150087309Y-121439000D01*
X150320698Y-121342327D01*
X150499327Y-121163699D01*
X150596000Y-120930310D01*
X150596000Y-120689000D01*
X157309994Y-120689000D01*
X157310000Y-120689001D01*
X157310000Y-120689000D01*
X157592484Y-120632810D01*
X157648674Y-120621633D01*
X157648675Y-120621633D01*
X157935790Y-120429790D01*
X158994786Y-119370792D01*
X158994789Y-119370790D01*
X158994790Y-119370790D01*
X159186633Y-119083675D01*
X159254000Y-118745000D01*
X159254001Y-118745000D01*
X159254001Y-121539000D01*
X145605500Y-121539000D01*
X145605500Y-110997310D01*
X145605500Y-110744691D01*
X145605500Y-110236691D01*
X145508827Y-110003302D01*
X145487525Y-109982000D01*
X145508827Y-109960698D01*
X145605500Y-109727309D01*
X145605500Y-109632750D01*
X145446750Y-109474000D01*
X144526000Y-109474000D01*
X144526000Y-109494000D01*
X144272000Y-109494000D01*
X144272000Y-109474000D01*
X143351250Y-109474000D01*
X143192500Y-109632750D01*
X143192500Y-109727309D01*
X143289173Y-109960698D01*
X143310474Y-109981999D01*
X143289173Y-110003301D01*
X143192500Y-110236690D01*
X143192500Y-110489309D01*
X143192500Y-110997309D01*
X143289173Y-111230698D01*
X143467801Y-111409327D01*
X143701190Y-111506000D01*
X143953809Y-111506000D01*
X145096809Y-111506000D01*
X145330198Y-111409327D01*
X145508827Y-111230699D01*
X145605500Y-110997310D01*
X145605500Y-121539000D01*
X144121000Y-121539000D01*
X144121000Y-117591310D01*
X144121000Y-117338691D01*
X144121000Y-117125750D01*
X144121000Y-116554250D01*
X144121000Y-116341309D01*
X144121000Y-116088690D01*
X144024327Y-115855301D01*
X143845698Y-115676673D01*
X143612309Y-115580000D01*
X143271750Y-115580000D01*
X143113000Y-115738750D01*
X143113000Y-116713000D01*
X143962250Y-116713000D01*
X144121000Y-116554250D01*
X144121000Y-117125750D01*
X143962250Y-116967000D01*
X143113000Y-116967000D01*
X143113000Y-117941250D01*
X143271750Y-118100000D01*
X143612309Y-118100000D01*
X143845698Y-118003327D01*
X144024327Y-117824699D01*
X144121000Y-117591310D01*
X144121000Y-121539000D01*
X134086600Y-121539000D01*
X134086600Y-119988910D01*
X134086600Y-119736291D01*
X134086600Y-117501091D01*
X133989927Y-117267702D01*
X133811299Y-117089073D01*
X133639934Y-117018091D01*
X133696327Y-116961699D01*
X133793000Y-116728310D01*
X133793000Y-116475691D01*
X133793000Y-113475691D01*
X133696327Y-113242302D01*
X133517699Y-113063673D01*
X133284310Y-112967000D01*
X133031691Y-112967000D01*
X131407691Y-112967000D01*
X131174302Y-113063673D01*
X130995673Y-113242301D01*
X130909999Y-113449134D01*
X130824327Y-113242302D01*
X130645699Y-113063673D01*
X130412310Y-112967000D01*
X130159691Y-112967000D01*
X128521750Y-112967000D01*
X128363000Y-113125750D01*
X128363000Y-114975000D01*
X128383000Y-114975000D01*
X128383000Y-115229000D01*
X128363000Y-115229000D01*
X128363000Y-117078250D01*
X128521750Y-117237000D01*
X130159691Y-117237000D01*
X130412310Y-117237000D01*
X130645699Y-117140327D01*
X130824327Y-116961698D01*
X130910000Y-116754865D01*
X130995673Y-116961698D01*
X131045036Y-117011062D01*
X130856702Y-117089073D01*
X130678073Y-117267701D01*
X130581400Y-117501090D01*
X130581400Y-117753709D01*
X130581400Y-119988909D01*
X130678073Y-120222298D01*
X130856701Y-120400927D01*
X131090090Y-120497600D01*
X131342709Y-120497600D01*
X133577909Y-120497600D01*
X133811298Y-120400927D01*
X133989927Y-120222299D01*
X134086600Y-119988910D01*
X134086600Y-121539000D01*
X122757000Y-121539000D01*
X122757000Y-94817000D01*
X159691000Y-94817000D01*
X159691000Y-121539000D01*
X159691000Y-121539000D01*
G37*
X159691000Y-121539000D02*
X159254001Y-121539000D01*
X159254001Y-118745000D01*
X159254000Y-118744994D01*
X159254000Y-103251005D01*
X159254000Y-103251000D01*
X159254001Y-103251000D01*
X159197810Y-102968515D01*
X159186633Y-102912326D01*
X159186633Y-102912325D01*
X158994790Y-102625211D01*
X158994790Y-102625210D01*
X158994786Y-102625207D01*
X158279790Y-101910210D01*
X157992675Y-101718367D01*
X157936484Y-101707189D01*
X157876000Y-101695158D01*
X157876000Y-101659691D01*
X157779327Y-101426302D01*
X157600699Y-101247673D01*
X157367310Y-101151000D01*
X157114691Y-101151000D01*
X155814691Y-101151000D01*
X155581302Y-101247673D01*
X155402673Y-101426301D01*
X155309599Y-101651000D01*
X153877000Y-101651000D01*
X153538325Y-101718367D01*
X153251210Y-101910210D01*
X153251207Y-101910213D01*
X152790210Y-102371210D01*
X152598367Y-102658325D01*
X152587189Y-102714515D01*
X152530999Y-102997000D01*
X152531000Y-102997005D01*
X152531000Y-103102685D01*
X152469886Y-103128000D01*
X152131579Y-103128000D01*
X150612790Y-101609210D01*
X150325675Y-101417367D01*
X150269484Y-101406189D01*
X150199924Y-101392353D01*
X150320698Y-101342327D01*
X150499327Y-101163699D01*
X150596000Y-100930310D01*
X150596000Y-100677691D01*
X150596000Y-100089750D01*
X150596000Y-99518250D01*
X150596000Y-98930309D01*
X150596000Y-98677690D01*
X150499327Y-98444301D01*
X150320698Y-98265673D01*
X150087309Y-98169000D01*
X149246750Y-98169000D01*
X149088000Y-98327750D01*
X149088000Y-99677000D01*
X150437250Y-99677000D01*
X150596000Y-99518250D01*
X150596000Y-100089750D01*
X150437250Y-99931000D01*
X149088000Y-99931000D01*
X149088000Y-99951000D01*
X148834000Y-99951000D01*
X148834000Y-99931000D01*
X148834000Y-99677000D01*
X148834000Y-98327750D01*
X148675250Y-98169000D01*
X147834691Y-98169000D01*
X147601302Y-98265673D01*
X147422673Y-98444301D01*
X147326000Y-98677690D01*
X147326000Y-98930309D01*
X147326000Y-99518250D01*
X147484750Y-99677000D01*
X148834000Y-99677000D01*
X148834000Y-99931000D01*
X147484750Y-99931000D01*
X147326000Y-100089750D01*
X147326000Y-100100420D01*
X145643790Y-98418210D01*
X145356675Y-98226367D01*
X145300484Y-98215189D01*
X145018000Y-98158999D01*
X145017994Y-98159000D01*
X144002000Y-98159000D01*
X139060025Y-98159000D01*
X138945025Y-98044000D01*
X139085327Y-97903698D01*
X139182000Y-97670309D01*
X139182000Y-97329750D01*
X139182000Y-96758250D01*
X139182000Y-96417691D01*
X139085327Y-96184302D01*
X138906699Y-96005673D01*
X138673310Y-95909000D01*
X138420691Y-95909000D01*
X138207750Y-95909000D01*
X138049000Y-96067750D01*
X138049000Y-96917000D01*
X139023250Y-96917000D01*
X139182000Y-96758250D01*
X139182000Y-97329750D01*
X139023250Y-97171000D01*
X138049000Y-97171000D01*
X138049000Y-97191000D01*
X137795000Y-97191000D01*
X137795000Y-97171000D01*
X137795000Y-96917000D01*
X137795000Y-96067750D01*
X137636250Y-95909000D01*
X137423309Y-95909000D01*
X137170690Y-95909000D01*
X136937301Y-96005673D01*
X136758673Y-96184302D01*
X136662000Y-96417691D01*
X136662000Y-96758250D01*
X136820750Y-96917000D01*
X137795000Y-96917000D01*
X137795000Y-97171000D01*
X136820750Y-97171000D01*
X136662000Y-97329750D01*
X136662000Y-97670309D01*
X136758673Y-97903698D01*
X136898974Y-98044000D01*
X136783974Y-98159000D01*
X136240579Y-98159000D01*
X135547790Y-97466210D01*
X135260675Y-97274367D01*
X135204484Y-97263189D01*
X134922000Y-97206999D01*
X134921994Y-97207000D01*
X133793000Y-97207000D01*
X133793000Y-96465691D01*
X133696327Y-96232302D01*
X133517699Y-96053673D01*
X133284310Y-95957000D01*
X133031691Y-95957000D01*
X131407691Y-95957000D01*
X131174302Y-96053673D01*
X130995673Y-96232301D01*
X130912070Y-96434134D01*
X130824327Y-96222302D01*
X130645699Y-96043673D01*
X130412310Y-95947000D01*
X130159691Y-95947000D01*
X128521750Y-95947000D01*
X128363000Y-96105750D01*
X128363000Y-97955000D01*
X128383000Y-97955000D01*
X128383000Y-98209000D01*
X128363000Y-98209000D01*
X128363000Y-100058250D01*
X128521750Y-100217000D01*
X130159691Y-100217000D01*
X130412310Y-100217000D01*
X130645699Y-100120327D01*
X130824327Y-99941698D01*
X130907928Y-99739865D01*
X130995673Y-99951698D01*
X131174301Y-100130327D01*
X131407690Y-100227000D01*
X131660309Y-100227000D01*
X133284309Y-100227000D01*
X133517698Y-100130327D01*
X133696327Y-99951699D01*
X133793000Y-99718310D01*
X133793000Y-99465691D01*
X133793000Y-98977000D01*
X134555420Y-98977000D01*
X135248207Y-99669786D01*
X135248210Y-99669790D01*
X135535325Y-99861633D01*
X135874000Y-99929000D01*
X136783974Y-99929000D01*
X136937301Y-100082327D01*
X137170690Y-100179000D01*
X137423309Y-100179000D01*
X138673309Y-100179000D01*
X138906698Y-100082327D01*
X139060025Y-99929000D01*
X144002000Y-99929000D01*
X144651420Y-99929000D01*
X147320762Y-102598341D01*
X147496124Y-102860790D01*
X147783239Y-103052633D01*
X147954998Y-103086798D01*
X147954998Y-103237028D01*
X147796250Y-103078280D01*
X147508539Y-103078280D01*
X147255920Y-103078280D01*
X147177367Y-103110817D01*
X147121633Y-102830623D01*
X146929790Y-102543508D01*
X146929786Y-102543505D01*
X145999491Y-101613209D01*
X145712376Y-101421366D01*
X145656185Y-101410188D01*
X145373701Y-101353998D01*
X145373695Y-101353999D01*
X140140501Y-101353999D01*
X139801826Y-101421366D01*
X139514711Y-101613209D01*
X139514708Y-101613212D01*
X139019920Y-102108000D01*
X138367191Y-102108000D01*
X138133802Y-102204673D01*
X137955173Y-102383301D01*
X137858500Y-102616690D01*
X137858500Y-102869309D01*
X137858500Y-103377309D01*
X137860443Y-103382000D01*
X127239579Y-103382000D01*
X125521000Y-101663420D01*
X125521000Y-100217000D01*
X125574309Y-100217000D01*
X125807698Y-100120327D01*
X125816999Y-100111025D01*
X125826301Y-100120327D01*
X126059690Y-100217000D01*
X126312309Y-100217000D01*
X127950250Y-100217000D01*
X128109000Y-100058250D01*
X128109000Y-98209000D01*
X128089000Y-98209000D01*
X128089000Y-97955000D01*
X128109000Y-97955000D01*
X128109000Y-96105750D01*
X127950250Y-95947000D01*
X126312309Y-95947000D01*
X126059690Y-95947000D01*
X125826301Y-96043673D01*
X125817000Y-96052974D01*
X125807699Y-96043673D01*
X125574310Y-95947000D01*
X125321691Y-95947000D01*
X123697691Y-95947000D01*
X123464302Y-96043673D01*
X123285673Y-96222301D01*
X123189000Y-96455690D01*
X123189000Y-96708309D01*
X123189000Y-99708309D01*
X123285673Y-99941698D01*
X123464301Y-100120327D01*
X123697690Y-100217000D01*
X123751000Y-100217000D01*
X123751000Y-102029994D01*
X123750999Y-102030000D01*
X123807189Y-102312484D01*
X123818367Y-102368675D01*
X124010210Y-102655790D01*
X126247207Y-104892786D01*
X126247210Y-104892790D01*
X126247211Y-104892790D01*
X126534325Y-105084633D01*
X126534326Y-105084633D01*
X126590515Y-105095810D01*
X126873000Y-105152001D01*
X126873000Y-105152000D01*
X126873005Y-105152000D01*
X137860442Y-105152000D01*
X137858500Y-105156690D01*
X137858500Y-105409309D01*
X137858500Y-105917309D01*
X137860443Y-105922000D01*
X137414005Y-105922000D01*
X137414000Y-105921999D01*
X137413994Y-105922000D01*
X135763000Y-105922000D01*
X133096000Y-105922000D01*
X125730005Y-105922000D01*
X125730000Y-105921999D01*
X125447515Y-105978189D01*
X125391325Y-105989367D01*
X125104210Y-106181210D01*
X125104207Y-106181213D01*
X124010210Y-107275210D01*
X123818367Y-107562325D01*
X123807189Y-107618515D01*
X123750999Y-107901000D01*
X123751000Y-107901005D01*
X123751000Y-112967000D01*
X123697691Y-112967000D01*
X123464302Y-113063673D01*
X123285673Y-113242301D01*
X123189000Y-113475690D01*
X123189000Y-113728309D01*
X123189000Y-116728309D01*
X123285673Y-116961698D01*
X123464301Y-117140327D01*
X123697690Y-117237000D01*
X123950309Y-117237000D01*
X125574309Y-117237000D01*
X125807698Y-117140327D01*
X125816999Y-117131025D01*
X125826301Y-117140327D01*
X126059690Y-117237000D01*
X126312309Y-117237000D01*
X127950250Y-117237000D01*
X128109000Y-117078250D01*
X128109000Y-115229000D01*
X128089000Y-115229000D01*
X128089000Y-114975000D01*
X128109000Y-114975000D01*
X128109000Y-113125750D01*
X127950250Y-112967000D01*
X126312309Y-112967000D01*
X126059690Y-112967000D01*
X125826301Y-113063673D01*
X125817000Y-113072974D01*
X125807699Y-113063673D01*
X125574310Y-112967000D01*
X125521000Y-112967000D01*
X125521000Y-108267579D01*
X126096579Y-107692000D01*
X133096000Y-107692000D01*
X135763000Y-107692000D01*
X136402000Y-107692000D01*
X136402000Y-113552793D01*
X136176732Y-113646103D01*
X135998103Y-113824731D01*
X135901430Y-114058120D01*
X135901430Y-114310739D01*
X135901430Y-115811879D01*
X135998103Y-116045268D01*
X136176731Y-116223897D01*
X136410120Y-116320570D01*
X136662739Y-116320570D01*
X138163879Y-116320570D01*
X138397268Y-116223897D01*
X138575897Y-116045269D01*
X138672570Y-115811880D01*
X138672570Y-115559261D01*
X138672570Y-114058121D01*
X138575897Y-113824732D01*
X138397269Y-113646103D01*
X138172000Y-113552793D01*
X138172000Y-111425149D01*
X138367190Y-111506000D01*
X138619809Y-111506000D01*
X138779250Y-111506000D01*
X138938000Y-111347250D01*
X138938000Y-110744000D01*
X138918000Y-110744000D01*
X138918000Y-110490000D01*
X138938000Y-110490000D01*
X138938000Y-110470000D01*
X139192000Y-110470000D01*
X139192000Y-110490000D01*
X139212000Y-110490000D01*
X139212000Y-110744000D01*
X139192000Y-110744000D01*
X139192000Y-111347250D01*
X139350750Y-111506000D01*
X139510191Y-111506000D01*
X139762810Y-111506000D01*
X139996199Y-111409327D01*
X140101000Y-111304525D01*
X140101000Y-115701974D01*
X139947673Y-115855301D01*
X139851000Y-116088690D01*
X139851000Y-116341309D01*
X139851000Y-117591309D01*
X139947673Y-117824698D01*
X140101000Y-117978025D01*
X140101000Y-118362420D01*
X139333420Y-119130000D01*
X138669206Y-119130000D01*
X138575897Y-118904732D01*
X138397269Y-118726103D01*
X138163880Y-118629430D01*
X137911261Y-118629430D01*
X136410121Y-118629430D01*
X136176732Y-118726103D01*
X135998103Y-118904731D01*
X135901430Y-119138120D01*
X135901430Y-119390739D01*
X135901430Y-120891879D01*
X135998103Y-121125268D01*
X136176731Y-121303897D01*
X136410120Y-121400570D01*
X136662739Y-121400570D01*
X138163879Y-121400570D01*
X138397268Y-121303897D01*
X138575897Y-121125269D01*
X138669206Y-120900000D01*
X139699994Y-120900000D01*
X139700000Y-120900001D01*
X139700000Y-120900000D01*
X139982484Y-120843810D01*
X140038674Y-120832633D01*
X140038675Y-120832633D01*
X140325790Y-120640790D01*
X141611786Y-119354792D01*
X141611790Y-119354790D01*
X141611790Y-119354789D01*
X141803633Y-119067675D01*
X141803633Y-119067674D01*
X141814810Y-119011484D01*
X141871000Y-118729000D01*
X141871001Y-118729000D01*
X141871000Y-118728994D01*
X141871000Y-117978025D01*
X141986000Y-117863025D01*
X142126302Y-118003327D01*
X142359691Y-118100000D01*
X142700250Y-118100000D01*
X142859000Y-117941250D01*
X142859000Y-116967000D01*
X142839000Y-116967000D01*
X142839000Y-116713000D01*
X142859000Y-116713000D01*
X142859000Y-115738750D01*
X142700250Y-115580000D01*
X142359691Y-115580000D01*
X142126302Y-115676673D01*
X141985999Y-115816974D01*
X141871000Y-115701974D01*
X141871000Y-106442005D01*
X141871000Y-106442000D01*
X141871001Y-106442000D01*
X141803633Y-106103325D01*
X141611790Y-105816210D01*
X141611786Y-105816207D01*
X140706790Y-104911210D01*
X140419675Y-104719367D01*
X140363484Y-104708189D01*
X140255204Y-104686651D01*
X140271500Y-104647310D01*
X140271500Y-104394691D01*
X140271500Y-103886691D01*
X140174827Y-103653302D01*
X140153525Y-103632000D01*
X140174827Y-103610699D01*
X140271500Y-103377310D01*
X140271500Y-103359579D01*
X140507080Y-103123999D01*
X143192500Y-103123999D01*
X143192500Y-103377309D01*
X143289173Y-103610698D01*
X143310474Y-103632000D01*
X143289173Y-103653302D01*
X143192500Y-103886691D01*
X143192500Y-103981250D01*
X143351250Y-104140000D01*
X144272000Y-104140000D01*
X144272000Y-104120000D01*
X144526000Y-104120000D01*
X144526000Y-104140000D01*
X144546000Y-104140000D01*
X144546000Y-104394000D01*
X144526000Y-104394000D01*
X144526000Y-104414000D01*
X144272000Y-104414000D01*
X144272000Y-104394000D01*
X143351250Y-104394000D01*
X143192500Y-104552750D01*
X143192500Y-104647309D01*
X143289173Y-104880698D01*
X143310474Y-104901999D01*
X143289173Y-104923301D01*
X143192500Y-105156690D01*
X143192500Y-105409309D01*
X143192500Y-105917309D01*
X143289173Y-106150698D01*
X143310474Y-106172000D01*
X143289173Y-106193302D01*
X143192500Y-106426691D01*
X143192500Y-106521250D01*
X143351250Y-106680000D01*
X144272000Y-106680000D01*
X144272000Y-106660000D01*
X144526000Y-106660000D01*
X144526000Y-106680000D01*
X144546000Y-106680000D01*
X144546000Y-106934000D01*
X144526000Y-106934000D01*
X144526000Y-106954000D01*
X144272000Y-106954000D01*
X144272000Y-106934000D01*
X143351250Y-106934000D01*
X143192500Y-107092750D01*
X143192500Y-107187309D01*
X143289173Y-107420698D01*
X143310474Y-107441999D01*
X143289173Y-107463301D01*
X143192500Y-107696690D01*
X143192500Y-107949309D01*
X143192500Y-108457309D01*
X143289173Y-108690698D01*
X143310474Y-108712000D01*
X143289173Y-108733302D01*
X143192500Y-108966691D01*
X143192500Y-109061250D01*
X143351250Y-109220000D01*
X144272000Y-109220000D01*
X144272000Y-109200000D01*
X144526000Y-109200000D01*
X144526000Y-109220000D01*
X145446750Y-109220000D01*
X145605500Y-109061250D01*
X145605500Y-108966691D01*
X145508827Y-108733302D01*
X145487525Y-108712000D01*
X145508827Y-108690699D01*
X145605500Y-108457310D01*
X145605500Y-108204691D01*
X145605500Y-107797849D01*
X146256437Y-108448786D01*
X146256440Y-108448790D01*
X146543555Y-108640633D01*
X146882230Y-108708000D01*
X147135885Y-108708000D01*
X147197000Y-108733314D01*
X147197000Y-110236000D01*
X147197000Y-112649000D01*
X147197000Y-113792000D01*
X147197000Y-116713000D01*
X147197000Y-117220994D01*
X147196999Y-117221000D01*
X147253189Y-117503484D01*
X147264367Y-117559675D01*
X147456210Y-117846790D01*
X147794901Y-118185481D01*
X147601302Y-118265673D01*
X147422673Y-118444301D01*
X147326000Y-118677690D01*
X147326000Y-118930309D01*
X147326000Y-120930309D01*
X147422673Y-121163698D01*
X147601301Y-121342327D01*
X147834690Y-121439000D01*
X148087309Y-121439000D01*
X150087309Y-121439000D01*
X150320698Y-121342327D01*
X150499327Y-121163699D01*
X150596000Y-120930310D01*
X150596000Y-120689000D01*
X157309994Y-120689000D01*
X157310000Y-120689001D01*
X157310000Y-120689000D01*
X157592484Y-120632810D01*
X157648674Y-120621633D01*
X157648675Y-120621633D01*
X157935790Y-120429790D01*
X158994786Y-119370792D01*
X158994789Y-119370790D01*
X158994790Y-119370790D01*
X159186633Y-119083675D01*
X159254000Y-118745000D01*
X159254001Y-118745000D01*
X159254001Y-121539000D01*
X145605500Y-121539000D01*
X145605500Y-110997310D01*
X145605500Y-110744691D01*
X145605500Y-110236691D01*
X145508827Y-110003302D01*
X145487525Y-109982000D01*
X145508827Y-109960698D01*
X145605500Y-109727309D01*
X145605500Y-109632750D01*
X145446750Y-109474000D01*
X144526000Y-109474000D01*
X144526000Y-109494000D01*
X144272000Y-109494000D01*
X144272000Y-109474000D01*
X143351250Y-109474000D01*
X143192500Y-109632750D01*
X143192500Y-109727309D01*
X143289173Y-109960698D01*
X143310474Y-109981999D01*
X143289173Y-110003301D01*
X143192500Y-110236690D01*
X143192500Y-110489309D01*
X143192500Y-110997309D01*
X143289173Y-111230698D01*
X143467801Y-111409327D01*
X143701190Y-111506000D01*
X143953809Y-111506000D01*
X145096809Y-111506000D01*
X145330198Y-111409327D01*
X145508827Y-111230699D01*
X145605500Y-110997310D01*
X145605500Y-121539000D01*
X144121000Y-121539000D01*
X144121000Y-117591310D01*
X144121000Y-117338691D01*
X144121000Y-117125750D01*
X144121000Y-116554250D01*
X144121000Y-116341309D01*
X144121000Y-116088690D01*
X144024327Y-115855301D01*
X143845698Y-115676673D01*
X143612309Y-115580000D01*
X143271750Y-115580000D01*
X143113000Y-115738750D01*
X143113000Y-116713000D01*
X143962250Y-116713000D01*
X144121000Y-116554250D01*
X144121000Y-117125750D01*
X143962250Y-116967000D01*
X143113000Y-116967000D01*
X143113000Y-117941250D01*
X143271750Y-118100000D01*
X143612309Y-118100000D01*
X143845698Y-118003327D01*
X144024327Y-117824699D01*
X144121000Y-117591310D01*
X144121000Y-121539000D01*
X134086600Y-121539000D01*
X134086600Y-119988910D01*
X134086600Y-119736291D01*
X134086600Y-117501091D01*
X133989927Y-117267702D01*
X133811299Y-117089073D01*
X133639934Y-117018091D01*
X133696327Y-116961699D01*
X133793000Y-116728310D01*
X133793000Y-116475691D01*
X133793000Y-113475691D01*
X133696327Y-113242302D01*
X133517699Y-113063673D01*
X133284310Y-112967000D01*
X133031691Y-112967000D01*
X131407691Y-112967000D01*
X131174302Y-113063673D01*
X130995673Y-113242301D01*
X130909999Y-113449134D01*
X130824327Y-113242302D01*
X130645699Y-113063673D01*
X130412310Y-112967000D01*
X130159691Y-112967000D01*
X128521750Y-112967000D01*
X128363000Y-113125750D01*
X128363000Y-114975000D01*
X128383000Y-114975000D01*
X128383000Y-115229000D01*
X128363000Y-115229000D01*
X128363000Y-117078250D01*
X128521750Y-117237000D01*
X130159691Y-117237000D01*
X130412310Y-117237000D01*
X130645699Y-117140327D01*
X130824327Y-116961698D01*
X130910000Y-116754865D01*
X130995673Y-116961698D01*
X131045036Y-117011062D01*
X130856702Y-117089073D01*
X130678073Y-117267701D01*
X130581400Y-117501090D01*
X130581400Y-117753709D01*
X130581400Y-119988909D01*
X130678073Y-120222298D01*
X130856701Y-120400927D01*
X131090090Y-120497600D01*
X131342709Y-120497600D01*
X133577909Y-120497600D01*
X133811298Y-120400927D01*
X133989927Y-120222299D01*
X134086600Y-119988910D01*
X134086600Y-121539000D01*
X122757000Y-121539000D01*
X122757000Y-94817000D01*
X159691000Y-94817000D01*
X159691000Y-121539000D01*
M02*
